<?xml version="1.0" encoding="utf-8"?>
<!-- Generator: Adobe Illustrator 16.0.0, SVG Export Plug-In . SVG Version: 6.00 Build 0)  -->
<!DOCTYPE svg PUBLIC "-//W3C//DTD SVG 1.1//EN" "http://www.w3.org/Graphics/SVG/1.1/DTD/svg11.dtd">
<svg version="1.1" id="Layer_1" xmlns="http://www.w3.org/2000/svg" xmlns:xlink="http://www.w3.org/1999/xlink" x="0px" y="0px"
	 width="256px" height="128px" viewBox="0 0 256 128" enable-background="new 0 0 256 128" xml:space="preserve">
<path fill="#A81005" d="M68,85c0,0-5.5-19.5,2-30.75S161.75,31,161.75,31l30.5,16c0,0,13.5,33.5-5.75,42c-18.034,7.963-69,14-69,14
	L68,85z"/>
<path fill="#FFFFFF" stroke="#000000" stroke-width="4" stroke-miterlimit="10" d="M169.333,69.667
	c0,16.2-13.704,25.666-32.666,25.666c-18.961,0-37.667-12.8-37.667-29s18.706-29.666,37.667-29.666
	C155.629,36.667,169.333,53.467,169.333,69.667z"/>
<path stroke="#000000" stroke-miterlimit="10" d="M39.333,48.333c0,0-7.333,3.333-7,7.333s6.333,7.667,16,5.667S75,44.333,88,38.667
	s34.333-18.333,63.333-18.333c15.06,0,31.666,15.666,36,21.333S207.25,56.25,218.25,55.813c5.5-0.563,10.792-2.354,12.125-5.688
	s-7.708-4.458-7.708-4.458s12.267-4.684,12.666,3.667c0.292,6.104-6.334,8.667-11,9.667S203.667,61,185,50.333
	S153.667,36.667,145,36s-42,1-71.333,19.333s-46,7.333-46.667,1.333S39.333,48.333,39.333,48.333z"/>
<path stroke="#000000" stroke-miterlimit="10" d="M34.25,89.5c0,0-2.25-2.375-1.917-6.375s3.417-5.125,9.792-5
	C51.995,78.318,61.25,83.25,71,87.75C84.013,93.756,110.251,110,139.25,110c15.06,0.001,40.916-9.834,45.25-15.5
	c4.334-5.668,14.667-12,23.5-14.833c6.929-2.223,16.001-2.666,17.334,0.667S225,87.667,225,87.667s8.759-2.131,6.667-9.333
	c-1.5-5.166-7.333-6.833-11.5-6.667c-4.899,0.195-9.2,0.778-23.5,6.667c-26.084,10.741-51.309,14.855-60,15
	c-20,0.333-53.33-4.093-69.667-11.584C41.375,70,30.417,76.5,29.75,82.5S34.25,89.5,34.25,89.5z"/>
<path stroke="#000000" stroke-width="2" stroke-miterlimit="10" d="M133.688,85.592c0.5,5.75-0.5-15.25,6.75-16.75
	c3.332-0.689-6.25,2.25-6.5-19.75c-0.115-10.106-1,3.658-1,10.5c0,9.75-7.5,9-6.25,9.25
	C133.835,70.271,132.929,76.86,133.688,85.592z"/>
</svg>
